<svg width="234" height="230" viewBox="0 0 234 230" fill="none" xmlns="http://www.w3.org/2000/svg">
<path d="M50.586 190.485C61.813 191.303 73.099 190.232 83.973 187.317C92.425 185.1 100.28 181.036 106.973 175.418C109.455 173.292 111.71 170.966 112.38 167.641C113.365 162.79 110.782 158.667 105.532 156.441C105.519 156.918 105.392 157.384 105.161 157.802C104.931 158.219 104.602 158.574 104.205 158.838C91.934 166.514 79.022 172.264 64.183 172.136C54.566 172.05 45.278 170.395 37.074 165.087C19.253 153.915 15.672 130.43 19.039 111.111C20.206 103.307 22.215 95.6518 25.032 88.2818C26.429 99.6038 30.922 110.323 38.015 119.258C38.429 119.928 39.114 119.857 39 120.442C39.009 120.517 39.001 120.594 38.976 120.665C38.952 120.737 38.911 120.802 38.857 120.856C38.804 120.91 38.739 120.95 38.667 120.975C38.595 121 38.519 121.008 38.444 120.999H38.543C39.685 120.142 39.799 121.355 40.27 121.855C47.618 128.989 56.15 134.596 66.338 136.793C66.78 136.537 67.636 136.979 67.764 136.38C67.864 135.481 66.794 135.952 66.452 135.638C63.156 132.47 58.875 130.573 55.679 127.277C49.73 121.17 44.579 114.578 41.497 106.588C31.752 82.7599 36.032 63.6969 52.44 44.2359C53.028 43.3719 53.81 42.6578 54.723 42.1518C56.692 37.0158 54.01 32.8779 49.016 33.3489C47.111 33.6389 45.376 34.6129 44.136 36.0879L30.239 50.1278L25.089 56.0348L24.932 55.8929L25.089 56.0208C23.12 58.4998 22.12 59.4998 19.724 62.7838L16.1 68.1349L16.171 68.2918C10.587 77.0928 6.318 86.6639 3.501 96.6999C3.34 97.0769 3.719 95.9299 3.501 96.6999C2.62 100.5 1.475 106.06 1.047 110.226C-1.892 133.255 1.675 158.738 18.754 175.774C24.461 182.038 31.923 184.92 39.671 187.617C39.671 187.617 47.932 190.342 50.586 190.485Z" fill="currentColor"/>
<path d="M50.058 18.7099C45.901 15.7919 41.258 13.6369 36.346 12.3459C38.501 14.9999 53.225 22.8478 48.945 25.9148C38.344 31.0948 26.787 25.9149 20.808 16.8689C19.381 13.3589 12.975 7.45187 18.04 4.65587C53.539 -14.9351 72.316 34.6469 50.058 18.7099Z" fill="currentColor"/>
<path d="M223.3 55.2929C216.993 59.4449 208.461 61.0009 201.541 56.9059C199.187 55.4789 199.087 54.4229 201.184 52.7389C203.767 50.6709 206.578 48.7159 209.289 46.8749L211.586 45.6908C212.171 45.3908 212.699 44.9918 212.428 44.2638C212.157 43.5358 211.372 43.8219 210.844 43.9639C206.081 44.9679 201.611 47.0469 197.774 50.0429C196.419 50.8559 195.035 51.6259 193.665 52.4259C192.538 53.0819 191.325 53.8519 190.041 53.0109C188.757 52.1688 189.228 50.6559 189.385 49.3719C191.382 40.8109 198.474 34.2479 206.849 31.8649C209.703 31.7789 212.456 31.1088 215.296 31.4228C220.8 32.2038 226.044 34.2658 230.605 37.4438C233.758 39.7978 234.129 41.0678 232.189 44.4068C230.919 46.6748 229.62 48.9999 228.008 51.0129L225.62 53.4999L223.3 55.2929Z" fill="currentColor"/>
<path d="M179.055 44.5639C179.495 44.0399 179.795 43.4129 179.927 42.7419C180.059 42.0709 180.019 41.3769 179.811 40.7259C178.698 36.4449 172.406 35.5318 168.996 33.1208C152.559 23.6748 134.239 17.6968 115.02 19.0948C55.965 21.6778 45.663 101.308 94.988 127.077C111.41 135.238 130.501 141.716 137.663 160.407C139.78 165.003 140.894 169.996 140.932 175.055C140.971 180.114 139.933 185.124 137.887 189.751C135.842 194.378 132.835 198.517 129.067 201.893C125.299 205.27 120.856 207.806 116.033 209.333C90.579 219.735 61.12 198 43.823 202.071C35.019 215.554 81.12 230.492 102.12 229.5C101.763 229.586 117.62 226.067 102.12 229.5C169.62 223.5 179.483 150.534 127.647 122.211C108.357 112.823 84.843 103.791 82.303 79.4068C78.494 59.6018 94.189 39.8269 114.064 37.7149C114.228 37.6999 114.39 37.6719 114.549 37.6289C128.12 35.4999 147.266 44.0069 163.831 46.3899C163.845 46.3329 174.732 48.9439 179.055 44.5639Z" fill="currentColor"/>
<path d="M126.563 67.4499C159.379 50.6989 204.052 57.4619 217.707 95.6719C218.181 96.9999 218.12 96.4999 218.663 98.2979C219.12 99.9999 218.736 98.5739 219.105 99.8669C220.909 106.189 222.037 112.684 222.472 119.244C222.607 124.884 222.44 130.528 221.973 136.151C221.888 137.022 221.788 137.892 221.702 138.762C221.651 139.048 221.747 138.515 221.702 138.762C221.657 139.01 221.702 139 221.445 140.189C221.26 140.888 221.088 141.616 220.917 142.301L219.804 148.593C219.696 149.151 219.894 148.229 219.804 148.593C219.715 148.957 219.804 148.897 219.291 150.676C218.62 153 218.777 152.745 218.406 153.744C214.394 167.485 207.761 180.319 198.873 191.541C197.19 193.538 195.534 195.564 193.936 197.619C193.423 197.619 193.209 197.933 193.052 198.332L191.625 199.93C189.884 201.029 188.771 202.784 187.345 204.211L184.177 207.236C182.622 208.12 181.823 209.761 180.524 210.903C178.976 212.588 177.006 213.83 174.817 214.498C170.394 215.426 167.683 212.287 168.154 207.093C177.271 195.678 185.49 182.837 185.533 167.613C185.801 157.66 183.512 147.805 178.884 138.991C172.149 126.149 163.018 116.005 148.493 111.596L150.619 111.268C176.216 113.237 194.607 136.365 197.703 160.493C199.686 153.83 202.925 147.495 202.726 140.275C202.961 140.021 203.142 139.722 203.257 139.395C203.372 139.069 203.42 138.723 203.396 138.377C204.452 128.019 204.666 117.76 202.126 107.501C195.106 80.3909 162.946 71.3879 139.347 81.8179C131.908 84.9599 124.941 89.1189 118.644 94.1739C116.104 94.3309 114.135 92.9899 112.138 91.7339L110.62 89.9999L109.655 87.8959L109.541 87.0259C109.182 84.5449 109.729 82.0169 111.082 79.9059C111.439 79.3779 111.81 78.8499 112.181 78.3369C114.078 76.4669 116.233 74.6549 118.23 72.8149" fill="currentColor"/>
<path d="M58.447 106.659C63.826 115.691 71.902 121.683 81.005 126.449C83.702 127.876 86.612 128.818 89.38 130.073C90.807 130.744 92.619 131.3 92.519 133.44C92.419 135.581 90.807 136.151 89.223 136.679C82.589 138.948 75.826 138.306 69.063 137.407C68.135 137.279 67.12 137 66.323 136.765C63.027 133.597 58.861 130.544 55.665 127.248C49.729 121.17 44.579 114.578 41.497 106.588C38.342 99.0219 36.573 90.9509 36.275 82.7599C36.146 73.2139 39.057 64.6819 43.751 56.5489C46.275 52.1939 49.183 48.0729 52.44 44.2359C53.028 43.3719 53.81 42.6579 54.723 42.1519C53.924 47.1459 51.87 51.7829 50.771 56.6919C47.489 71.3169 47.917 85.6698 54.224 99.4958C55.294 102.068 56.715 104.478 58.447 106.659Z" fill="currentColor"/>
<path d="M36.389 139.833C45.949 150.077 57.905 154.871 71.745 155.413C80.62 155.77 89.466 154.672 98.326 154.886C100.805 154.728 103.277 155.272 105.46 156.455C105.448 156.932 105.321 157.399 105.09 157.816C104.859 158.233 104.531 158.589 104.134 158.852C91.863 166.528 78.951 172.278 64.112 172.15C54.495 172.064 45.207 170.409 37.003 165.102C29.083 160.019 23.282 152.229 20.68 143.186C17.584 132.784 16.998 121.797 18.968 111.125C19.496 108.443 20.095 105.589 20.609 102.921C20.742 105.805 21.143 108.671 21.807 111.482C24.19 122.169 28.485 131.928 36.389 139.833Z" fill="currentColor"/>
<path d="M118.644 94.1739C124.935 89.1359 131.892 84.9919 139.319 81.8609C162.861 71.4589 194.964 80.4339 202.098 107.544C204.638 117.788 204.424 128.047 203.368 138.406C203.391 138.751 203.344 139.098 203.228 139.424C203.113 139.75 202.932 140.05 202.697 140.303C199.843 109.484 171.807 90.1359 141.958 94.4449C135.603 95.1089 129.211 95.3429 122.825 95.1449C121.362 95.2969 119.89 94.9549 118.644 94.1739Z" fill="currentColor"/>
<path d="M150.533 111.296C165.058 115.705 172.063 126.249 178.798 139.019C188.258 156.698 187.858 179.356 176.116 195.85C173.655 199.76 170.968 203.524 168.068 207.121C168.325 203.084 170.094 199.431 171.079 195.578C175.645 178.2 174.746 158.481 164.302 143.385C163.978 142.124 163.233 141.012 162.19 140.232C157.352 133.401 151.005 127.777 143.642 123.795C140.323 121.771 136.833 120.042 133.212 118.63C132.529 118.473 131.924 118.082 131.501 117.523C131.078 116.965 130.866 116.276 130.9 115.577C131 113.964 132.142 113.194 133.554 112.723C138.999 110.806 144.844 110.315 150.533 111.296Z" fill="currentColor"/>
</svg>
